<svg xmlns="http://www.w3.org/2000/svg" viewBox="0 0 64 64" role="img" aria-label="Danny Sullivan — DS">
  <rect width="64" height="64" rx="18" fill="#0b0c0e"/>
  <path fill="#ffffff" fill-rule="evenodd" d="M9 17h10c9 0 14 5.4 14 15s-5 15-14 15H9V17Zm8 7v16h2c4 0 6-2.5 6-8s-2-8-6-8h-2Z"/>
  <path fill="#ffffff" d="M55 18v7H44c-1.7 0-2.7.6-2.7 1.7 0 1.2 1 1.7 3.4 2.2l3.1.7c5.4 1.2 8.2 4 8.2 8.5 0 5.8-4.5 9.2-12 9.2-4.7 0-8.6-.9-11.6-2.7l2.7-6.3a18 18 0 0 0 8.8 2.3c2.6 0 3.9-.7 3.9-2 0-1.1-1-1.7-3.3-2.2l-3.1-.7c-5.7-1.3-8.4-4.2-8.4-8.7 0-5.5 4.3-9 11.3-9 4.2 0 7.5.7 10.7 2Z"/>
  <circle cx="54" cy="11" r="4" fill="#ddff73"/>
</svg>
