<svg xmlns="http://www.w3.org/2000/svg" viewBox="0 0 1672 941" role="img" aria-label="ChatGPT and Claude comparison guide for small business">
  <rect width="1672" height="941" fill="#f3e7d5"/><rect x="22" y="22" width="1628" height="897" fill="none" stroke="#151515" stroke-width="4"/>
  <rect x="22" y="22" width="1628" height="118" fill="#151515"/><text x="70" y="77" fill="#f3e7d5" font-family="Arial,Helvetica,sans-serif" font-size="21" font-weight="700" letter-spacing="5">AI TOOL DECISION GUIDE</text><text x="1600" y="79" text-anchor="end" fill="#d9fa67" font-family="Arial,Helvetica,sans-serif" font-size="18" font-weight="700" letter-spacing="3">PICK FOR THE WORK</text>
  <rect x="70" y="190" width="650" height="510" fill="#dce8ff" stroke="#151515" stroke-width="4"/><text x="106" y="240" fill="#151515" font-family="Arial,Helvetica,sans-serif" font-size="18" font-weight="700" letter-spacing="4">BROAD TOOLKIT</text><text x="106" y="310" fill="#151515" font-family="Arial,Helvetica,sans-serif" font-size="52" font-weight="700">CHATGPT</text>
  <circle cx="395" cy="440" r="118" fill="#f3e7d5" stroke="#151515" stroke-width="6"/><circle cx="395" cy="440" r="34" fill="#ff6f4f" stroke="#151515" stroke-width="5"/><circle cx="395" cy="340" r="22" fill="#d9fa67" stroke="#151515" stroke-width="4"/><circle cx="490" cy="470" r="22" fill="#e9e4ff" stroke="#151515" stroke-width="4"/><circle cx="320" cy="505" r="22" fill="#ff6f4f" stroke="#151515" stroke-width="4"/><path d="M395 362v42M468 463l-42-14M338 491l34-30" stroke="#151515" stroke-width="6"/>
  <text x="106" y="620" fill="#151515" font-family="Arial,Helvetica,sans-serif" font-size="25">Flexible tools and a</text><text x="106" y="657" fill="#151515" font-family="Arial,Helvetica,sans-serif" font-size="25">familiar starting point</text>
  <rect x="770" y="166" width="832" height="558" fill="#d9fa67" stroke="#151515" stroke-width="6"/><rect x="788" y="184" width="796" height="522" fill="none" stroke="#151515" stroke-width="2"/><text x="824" y="240" fill="#151515" font-family="Arial,Helvetica,sans-serif" font-size="18" font-weight="700" letter-spacing="4">REPEATABLE WORK</text><text x="824" y="310" fill="#151515" font-family="Arial,Helvetica,sans-serif" font-size="52" font-weight="700">CLAUDE</text>
  <rect x="824" y="356" width="690" height="190" fill="#f3e7d5" stroke="#151515" stroke-width="6"/><path d="M866 402h130M866 450h250M866 498h200" stroke="#151515" stroke-width="8"/><circle cx="1390" cy="450" r="62" fill="#ff6f4f" stroke="#151515" stroke-width="6"/><path d="M1358 450h64M1390 418v64" stroke="#151515" stroke-width="7"/>
  <text x="824" y="620" fill="#151515" font-family="Arial,Helvetica,sans-serif" font-size="25">Deep work, long context,</text><text x="824" y="657" fill="#151515" font-family="Arial,Helvetica,sans-serif" font-size="25">and reusable processes</text>
  <rect x="70" y="766" width="1532" height="102" fill="#151515"/><text x="836" y="830" text-anchor="middle" fill="#f3e7d5" font-family="Arial,Helvetica,sans-serif" font-size="34" font-weight="700">TRY BOTH. KEEP THE ONE THAT SAVES YOU TIME.</text>
</svg>
