<svg xmlns="http://www.w3.org/2000/svg" viewBox="0 0 1672 941" role="img" aria-label="Claude daily calendar briefing workflow for small business">
  <rect width="1672" height="941" fill="#f3e7d5"/>
  <rect x="22" y="22" width="1628" height="897" fill="none" stroke="#151515" stroke-width="4"/>

  <rect x="22" y="22" width="1628" height="118" fill="#151515"/>
  <text x="70" y="77" fill="#f3e7d5" font-family="Arial, Helvetica, sans-serif" font-size="21" font-weight="700" letter-spacing="5">CLAUDE DAILY BRIEFING</text>
  <text x="1600" y="79" text-anchor="end" fill="#d9fa67" font-family="Arial, Helvetica, sans-serif" font-size="18" font-weight="700" letter-spacing="3">READY BEFORE THE DAY STARTS</text>

  <path d="M150 468h1370" stroke="#151515" stroke-width="8"/>

  <rect x="70" y="192" width="350" height="486" fill="#d9fa67" stroke="#151515" stroke-width="6"/>
  <rect x="88" y="210" width="314" height="450" fill="none" stroke="#151515" stroke-width="2"/>
  <text x="116" y="254" fill="#151515" font-family="Arial, Helvetica, sans-serif" font-size="18" font-weight="700" letter-spacing="4">SCHEDULED</text>
  <text x="116" y="316" fill="#151515" font-family="Arial, Helvetica, sans-serif" font-size="46" font-weight="700">7:30 AM</text>
  <circle cx="245" cy="446" r="94" fill="#f3e7d5" stroke="#151515" stroke-width="6"/>
  <path d="M245 392v60l48 30" fill="none" stroke="#151515" stroke-width="9" stroke-linecap="square"/>
  <circle cx="245" cy="446" r="10" fill="#ff6f4f" stroke="#151515" stroke-width="4"/>
  <text x="116" y="592" fill="#151515" font-family="Arial, Helvetica, sans-serif" font-size="26" font-weight="700">CLAUDE PREPARES</text>
  <text x="116" y="627" fill="#151515" font-family="Arial, Helvetica, sans-serif" font-size="24">your day automatically</text>

  <circle cx="570" cy="468" r="22" fill="#ff6f4f" stroke="#151515" stroke-width="5"/>
  <rect x="462" y="232" width="260" height="172" fill="#dce8ff" stroke="#151515" stroke-width="4"/>
  <text x="488" y="274" fill="#151515" font-family="Arial, Helvetica, sans-serif" font-size="17" font-weight="700" letter-spacing="3">9:00 AM</text>
  <text x="488" y="322" fill="#151515" font-family="Arial, Helvetica, sans-serif" font-size="29" font-weight="700">CUSTOMER</text>
  <text x="488" y="358" fill="#151515" font-family="Arial, Helvetica, sans-serif" font-size="29" font-weight="700">CALL</text>
  <rect x="482" y="518" width="220" height="90" fill="#f3e7d5" stroke="#151515" stroke-width="4"/>
  <path d="M504 541h44v42h-44zM517 553h18M517 563h18M565 548h112M565 570h88" fill="none" stroke="#151515" stroke-width="4"/>
  <text x="492" y="648" fill="#151515" font-family="Arial, Helvetica, sans-serif" font-size="20">Latest email + brief</text>

  <circle cx="930" cy="468" r="22" fill="#ff6f4f" stroke="#151515" stroke-width="5"/>
  <rect x="822" y="232" width="260" height="172" fill="#ff6f4f" stroke="#151515" stroke-width="4"/>
  <text x="848" y="274" fill="#151515" font-family="Arial, Helvetica, sans-serif" font-size="17" font-weight="700" letter-spacing="3">11:00 AM</text>
  <text x="848" y="322" fill="#151515" font-family="Arial, Helvetica, sans-serif" font-size="29" font-weight="700">PROPOSAL</text>
  <text x="848" y="358" fill="#151515" font-family="Arial, Helvetica, sans-serif" font-size="29" font-weight="700">REVIEW</text>
  <rect x="842" y="518" width="220" height="90" fill="#f3e7d5" stroke="#151515" stroke-width="4"/>
  <rect x="864" y="537" width="52" height="52" fill="#e9e4ff" stroke="#151515" stroke-width="4"/>
  <path d="M932 545h106M932 567h82M932 589h96" stroke="#151515" stroke-width="4"/>
  <text x="852" y="648" fill="#151515" font-family="Arial, Helvetica, sans-serif" font-size="20">Proposal + questions</text>

  <circle cx="1290" cy="468" r="22" fill="#ff6f4f" stroke="#151515" stroke-width="5"/>
  <rect x="1182" y="232" width="350" height="172" fill="#e9e4ff" stroke="#151515" stroke-width="4"/>
  <text x="1208" y="274" fill="#151515" font-family="Arial, Helvetica, sans-serif" font-size="17" font-weight="700" letter-spacing="3">2:00 PM</text>
  <text x="1208" y="322" fill="#151515" font-family="Arial, Helvetica, sans-serif" font-size="29" font-weight="700">TEAM</text>
  <text x="1208" y="358" fill="#151515" font-family="Arial, Helvetica, sans-serif" font-size="29" font-weight="700">CHECK-IN</text>
  <rect x="1202" y="518" width="310" height="90" fill="#f3e7d5" stroke="#151515" stroke-width="4"/>
  <circle cx="1236" cy="563" r="16" fill="#d9fa67" stroke="#151515" stroke-width="4"/>
  <path d="M1270 545h214M1270 567h166M1270 589h196" stroke="#151515" stroke-width="4"/>
  <text x="1212" y="648" fill="#151515" font-family="Arial, Helvetica, sans-serif" font-size="20">Agenda + open decisions</text>

  <rect x="70" y="766" width="1532" height="102" fill="#151515"/>
  <text x="836" y="830" text-anchor="middle" fill="#f3e7d5" font-family="Arial, Helvetica, sans-serif" font-size="34" font-weight="700">YOUR DAY, PREPARED BEFORE THE FIRST MEETING.</text>
</svg>
